<svg width="15" height="8" viewBox="0 0 15 8" fill="none" xmlns="http://www.w3.org/2000/svg">
<path d="M7.00125 7.50247C6.7676 7.50293 6.54116 7.42155 6.36125 7.27247L0.361252 2.27247C0.157036 2.10273 0.0286112 1.85882 0.0042315 1.5944C-0.0201482 1.32997 0.0615137 1.06669 0.231252 0.862473C0.400991 0.658256 0.644902 0.529832 0.909329 0.505452C1.17375 0.481072 1.43704 0.562734 1.64125 0.732472L7.00125 5.21247L12.3613 0.892473C12.4635 0.809407 12.5812 0.747376 12.7076 0.709944C12.8339 0.672512 12.9664 0.660418 13.0974 0.674357C13.2285 0.688297 13.3554 0.727993 13.4711 0.791167C13.5867 0.854341 13.6887 0.939746 13.7713 1.04247C13.8628 1.14529 13.9322 1.26592 13.975 1.39679C14.0178 1.52767 14.0331 1.66597 14.0199 1.80303C14.0068 1.9401 13.9655 2.07297 13.8986 2.19332C13.8317 2.31368 13.7407 2.41893 13.6313 2.50247L7.63125 7.33247C7.44617 7.45799 7.22435 7.51784 7.00125 7.50247Z" fill="#493E3E"/>
</svg>
