<svg width="32" height="16" viewBox="0 0 32 16" fill="none" xmlns="http://www.w3.org/2000/svg">
<path d="M15.5051 15.9975C14.9876 15.9986 14.4861 15.8127 14.0877 15.4721L0.800034 4.04942C0.347773 3.66164 0.0633628 3.10442 0.00937113 2.50033C-0.0446205 1.89624 0.136229 1.29476 0.512134 0.828222C0.888039 0.361682 1.42821 0.068293 2.01381 0.0125967C2.59941 -0.0430996 3.18248 0.143459 3.63474 0.531232L15.5051 10.7659L27.3754 0.896759C27.6019 0.706992 27.8626 0.565279 28.1423 0.479765C28.4221 0.394251 28.7156 0.366622 29.0057 0.398466C29.2959 0.430311 29.5771 0.521 29.8332 0.665322C30.0893 0.809645 30.3152 1.00476 30.498 1.23944C30.7008 1.47434 30.8544 1.74991 30.9492 2.0489C31.0439 2.34788 31.0778 2.66384 31.0487 2.97696C31.0196 3.29009 30.9281 3.59364 30.78 3.8686C30.6319 4.14356 30.4303 4.384 30.1879 4.57486L16.9003 15.6092C16.4904 15.8959 15.9991 16.0326 15.5051 15.9975Z" fill="#493E3E"/>
</svg>
