<svg width="32" height="16" viewBox="0 0 32 16" fill="none" xmlns="http://www.w3.org/2000/svg">
<path d="M15.5535 0.0083328C16.071 0.00729048 16.5725 0.193194 16.9709 0.533775L30.2586 11.9564C30.7108 12.3442 30.9952 12.9014 31.0492 13.5055C31.1032 14.1096 30.9224 14.7111 30.5465 15.1776C30.1706 15.6442 29.6304 15.9376 29.0448 15.9933C28.4592 16.049 27.8761 15.8624 27.4239 15.4746L15.5535 5.23991L3.68322 15.1091C3.45669 15.2989 3.19604 15.4406 2.91625 15.5261C2.63646 15.6116 2.34304 15.6392 2.05287 15.6074C1.76269 15.5755 1.48147 15.4849 1.22538 15.3405C0.96929 15.1962 0.743374 15.0011 0.560619 14.7664C0.357805 14.5315 0.204203 14.2559 0.109432 13.957C0.0146639 13.658 -0.0192258 13.342 0.00988033 13.0289C0.0389884 12.7158 0.130465 12.4122 0.278584 12.1373C0.426705 11.8623 0.628277 11.6219 0.870667 11.431L14.1583 0.396704C14.5682 0.109958 15.0595 -0.0267825 15.5535 0.0083328Z" fill="#493E3E"/>
</svg>
