<svg width="71" height="66" viewBox="0 0 71 66" fill="none" xmlns="http://www.w3.org/2000/svg">
<path d="M26.3068 58.2301H12.7751V43.8477" stroke="white" stroke-width="2" stroke-miterlimit="10" stroke-linecap="round"/>
<path d="M27.4321 59.6051C27.4321 59.6051 24.605 56.6077 23.5345 52.9227C22.0798 47.9452 21.3936 43.8202 17.3862 39.7777" stroke="white" stroke-width="2" stroke-miterlimit="10" stroke-linecap="round"/>
<path d="M38.9875 57.3226C43.0224 61.6676 43.9007 62.9601 45.3828 62.6851C47.0572 62.3551 47.2493 60.5126 47.2493 58.9451" stroke="white" stroke-width="2" stroke-miterlimit="10" stroke-linecap="round"/>
<path d="M33.4979 58.7802C37.5327 63.1251 38.4111 64.4176 39.8932 64.1426C41.5675 63.8126 41.7597 61.9701 41.7597 60.4026" stroke="white" stroke-width="2" stroke-miterlimit="10" stroke-linecap="round"/>
<path d="M27.4321 59.6053C31.4669 63.9503 32.3453 65.2428 33.8274 64.9678C35.5017 64.6378 35.6939 62.7953 35.6939 61.2278" stroke="white" stroke-width="2" stroke-miterlimit="10" stroke-linecap="round"/>
<path d="M53.3701 58.2302H69.921V1.00293H16.6177C14.5042 1.00293 12.775 2.73542 12.775 4.85292C12.775 5.87041 13.1868 6.86041 13.9004 7.57541L30.4239 24.1303C31.1375 24.8453 31.1375 25.9728 30.4239 26.6878L16.3432 40.7953C15.6296 41.5103 14.5042 41.5103 13.7906 40.7953L1 27.9803" stroke="white" stroke-width="2" stroke-miterlimit="10" stroke-linecap="round"/>
<path d="M29.2437 27.8978L33.4157 32.0778C39.8933 38.5678 43.5988 38.5953 48.6491 39.0903C48.6491 39.0903 52.4369 39.6678 54.77 42.3628C56.7736 44.7003 53.9191 48.0553 51.339 46.4053C51.092 46.2403 50.8449 46.0753 50.5979 45.8553C49.4177 44.8653 47.8257 44.4803 46.3435 44.9753C44.4496 45.6078 43.9007 48.0003 45.3005 49.4027L45.9044 50.0077L52.6565 56.7727C53.6172 57.7352 53.6172 59.3302 52.6565 60.2927C51.6958 61.2552 50.1039 61.2552 49.1432 60.2927L43.8458 54.9852" stroke="white" stroke-width="2" stroke-miterlimit="10" stroke-linecap="round"/>
<path d="M62.7122 20.1011C62.7122 14.4948 58.3838 8.90918 50.5103 8.90918C42.6368 8.90918 38.3085 14.4948 38.3085 20.1011" stroke="white" stroke-width="2" stroke-miterlimit="10" stroke-linecap="round"/>
<path d="M36 22.6772H65" stroke="white" stroke-width="2" stroke-miterlimit="10" stroke-linecap="round"/>
<path d="M38.3085 22.6772C38.3085 24.759 39.978 26.9025 42.0597 26.9025H50.5103H58.9609C61.0427 26.9025 62.7122 24.759 62.7122 22.6772" stroke="white" stroke-width="2" stroke-miterlimit="10" stroke-linecap="round"/>
<path d="M50.5102 8.92972V6.00293" stroke="white" stroke-width="2" stroke-miterlimit="10" stroke-linecap="round"/>
</svg>
