<svg width="41" height="25" viewBox="0 0 41 25" fill="none" xmlns="http://www.w3.org/2000/svg">
<rect width="41" height="3" rx="1.5" fill="#493E3E"/>
<rect y="8" width="41" height="3" rx="1.5" fill="#493E3E"/>
<path d="M0 16.1849H1.65967L4.61019 19.8836L7.56072 16.1849H9.22039V24.8151H7.37631V19.1438L4.61019 22.5959L1.84408 19.1438V24.8151H0V16.1849Z" fill="#493E3E"/>
<path d="M11.4294 16.1849H17.8222V17.911H13.2735V19.5753H16.8387V21.2397H13.2735V23.089H17.9452V24.8151H11.4294V16.1849Z" fill="#493E3E"/>
<path d="M19.6053 16.1849H21.4494V19.5753H25.1376V16.1849H26.9816V24.8151H25.1376V21.3014H21.4494V24.8151H19.6053V16.1849Z" fill="#493E3E"/>
<path d="M29.1979 16.1849H31.042V19.5753H32.2099C32.3 19.0986 32.4681 18.6466 32.7139 18.2192C32.968 17.7836 33.2795 17.4014 33.6483 17.0726C34.0253 16.7438 34.4597 16.4849 34.9514 16.2959C35.4514 16.0986 35.9923 16 36.5742 16C37.1889 16 37.7626 16.1151 38.2954 16.3452C38.8363 16.5753 39.3075 16.8959 39.7091 17.3068C40.1107 17.7096 40.4263 18.1863 40.6558 18.737C40.8853 19.2795 41 19.8671 41 20.5C41 21.1329 40.8853 21.7247 40.6558 22.2753C40.4263 22.8178 40.1107 23.2945 39.7091 23.7055C39.3075 24.1082 38.8363 24.4247 38.2954 24.6548C37.7626 24.8849 37.1889 25 36.5742 25C35.9923 25 35.4514 24.9014 34.9514 24.7041C34.4515 24.4986 34.0089 24.2274 33.6237 23.8904C33.2467 23.5534 32.9352 23.163 32.6894 22.7192C32.4435 22.2671 32.2837 21.7945 32.2099 21.3014H31.042V24.8151H29.1979V16.1849ZM36.5742 23.274C36.9102 23.274 37.2299 23.2041 37.5331 23.0644C37.8446 22.9247 38.115 22.7315 38.3445 22.4849C38.574 22.2384 38.7543 21.9466 38.8855 21.6096C39.0248 21.2726 39.0945 20.9027 39.0945 20.5C39.0945 20.0973 39.0248 19.7274 38.8855 19.3904C38.7543 19.0534 38.574 18.7616 38.3445 18.5151C38.115 18.2685 37.8446 18.0753 37.5331 17.9356C37.2299 17.7959 36.9102 17.726 36.5742 17.726C36.2382 17.726 35.9144 17.7959 35.603 17.9356C35.2998 18.0753 35.0334 18.2685 34.8039 18.5151C34.5744 18.7616 34.39 19.0534 34.2507 19.3904C34.1195 19.7274 34.054 20.0973 34.054 20.5C34.054 20.9027 34.1195 21.2726 34.2507 21.6096C34.39 21.9466 34.5744 22.2384 34.8039 22.4849C35.0334 22.7315 35.2998 22.9247 35.603 23.0644C35.9144 23.2041 36.2382 23.274 36.5742 23.274Z" fill="#493E3E"/>
</svg>
