<svg width="48" height="48" viewBox="0 0 48 48" fill="none" xmlns="http://www.w3.org/2000/svg">
<circle cx="24" cy="24.0029" r="23" stroke="white" stroke-width="2"/>
<path d="M27.2 24.0029C27.2 24.6358 27.0123 25.2545 26.6607 25.7808C26.3091 26.307 25.8093 26.7171 25.2246 26.9593C24.6399 27.2015 23.9965 27.2649 23.3757 27.1414C22.755 27.018 22.1848 26.7132 21.7373 26.2657C21.2897 25.8181 20.985 25.248 20.8615 24.6272C20.738 24.0065 20.8014 23.3631 21.0436 22.7783C21.2858 22.1936 21.6959 21.6938 22.2222 21.3422C22.7484 20.9906 23.3671 20.8029 24 20.8029C24.8484 20.8039 25.6618 21.1414 26.2617 21.7413C26.8616 22.3412 27.199 23.1545 27.2 24.0029ZM34 19.6029V28.4029C33.9983 29.8876 33.4078 31.311 32.3579 32.3609C31.3081 33.4107 29.8847 34.0012 28.4 34.0029H19.6C18.1153 34.0012 16.6919 33.4107 15.6421 32.3609C14.5922 31.311 14.0017 29.8876 14 28.4029V19.6029C14.0017 18.1182 14.5922 16.6948 15.6421 15.645C16.6919 14.5952 18.1153 14.0046 19.6 14.0029H28.4C29.8847 14.0046 31.3081 14.5952 32.3579 15.645C33.4078 16.6948 33.9983 18.1182 34 19.6029ZM28.8 24.0029C28.8 23.0536 28.5185 22.1255 27.9911 21.3362C27.4636 20.5468 26.714 19.9316 25.8369 19.5683C24.9598 19.205 23.9947 19.11 23.0636 19.2952C22.1325 19.4804 21.2772 19.9375 20.6059 20.6088C19.9346 21.2801 19.4774 22.1354 19.2922 23.0665C19.107 23.9976 19.2021 24.9627 19.5654 25.8398C19.9287 26.7169 20.5439 27.4666 21.3333 27.994C22.1226 28.5214 23.0506 28.8029 24 28.8029C25.2726 28.8015 26.4927 28.2953 27.3925 27.3955C28.2924 26.4956 28.7986 25.2755 28.8 24.0029ZM30.4 18.8029C30.4 18.5656 30.3296 18.3336 30.1978 18.1362C30.0659 17.9389 29.8785 17.7851 29.6592 17.6943C29.4399 17.6034 29.1987 17.5797 28.9659 17.626C28.7331 17.6723 28.5193 17.7866 28.3515 17.9544C28.1837 18.1222 28.0694 18.336 28.0231 18.5688C27.9768 18.8016 28.0005 19.0429 28.0913 19.2621C28.1822 19.4814 28.336 19.6688 28.5333 19.8007C28.7307 19.9326 28.9627 20.0029 29.2 20.0029C29.5183 20.0029 29.8235 19.8765 30.0485 19.6515C30.2736 19.4264 30.4 19.1212 30.4 18.8029Z" fill="white"/>
</svg>
