<svg width="37" height="25" viewBox="0 0 37 25" fill="none" xmlns="http://www.w3.org/2000/svg">
<path d="M8.78 3.14307V8.12307C8.78 8.71307 8.22813 9.21307 7.44744 9.33307C6.66675 9.45307 6.10142 9.97307 6.10142 10.5631C6.10142 13.7431 6.10142 20.3531 6.10142 20.3531C6.10142 20.8531 5.56301 21.2531 4.89 21.2531C4.21699 21.2531 3.67858 20.8531 3.67858 20.3531V10.5731C3.67858 9.97307 3.11325 9.46307 2.33256 9.34307C1.55187 9.22307 1 8.71307 1 8.12307V3.14307" stroke="#4D8F76" stroke-width="1.5" stroke-miterlimit="10" stroke-linecap="round" stroke-linejoin="round"/>
<path d="M3.61121 3.14307V7.45307" stroke="#4D8F76" stroke-width="1.5" stroke-miterlimit="10" stroke-linecap="round" stroke-linejoin="round"/>
<path d="M6.18213 3.14307V7.45307" stroke="#4D8F76" stroke-width="1.5" stroke-miterlimit="10" stroke-linecap="round" stroke-linejoin="round"/>
<path d="M34.1687 15.887C34.1687 19.046 34.1687 20.1089 34.1687 20.1089C34.1687 20.6056 33.6867 21.0029 33.0843 21.0029C32.4819 21.0029 32 20.6056 32 20.1089V12.4201V3.00293C32 3.00293 36 3.7579 36 8.76452V14.3473H35.1084C34.6024 14.3473 34.1807 14.685 34.1807 15.1122L34.1687 15.887Z" stroke="#4D8F76" stroke-width="1.5" stroke-miterlimit="10" stroke-linecap="round" stroke-linejoin="round"/>
<path d="M29.61 17.4729C27.73 21.0029 24 23.4029 19.72 23.4029C14.76 23.4029 10.55 20.1729 9.08002 15.7029" stroke="#4D8F76" stroke-width="1.5" stroke-miterlimit="10" stroke-linecap="round" stroke-linejoin="round"/>
<path d="M11.07 5.09293C13.12 2.59293 16.24 1.00293 19.72 1.00293C24.1 1.00293 27.9 3.52293 29.74 7.19293" stroke="#4D8F76" stroke-width="1.5" stroke-miterlimit="10" stroke-linecap="round" stroke-linejoin="round"/>
<path d="M19.73 19.8829C23.9715 19.8829 27.41 16.4445 27.41 12.2029C27.41 7.9614 23.9715 4.52295 19.73 4.52295C15.4884 4.52295 12.05 7.9614 12.05 12.2029C12.05 16.4445 15.4884 19.8829 19.73 19.8829Z" stroke="#4D8F76" stroke-width="1.5" stroke-miterlimit="10" stroke-linecap="round" stroke-linejoin="round"/>
</svg>
