<svg width="140" height="44" viewBox="0 0 140 44" fill="none" xmlns="http://www.w3.org/2000/svg">
<path fill-rule="evenodd" clip-rule="evenodd" d="M57.9814 30.6309V33.394L57.9653 33.6706L57.9386 33.9452L57.9011 34.2179L57.853 34.4885L57.7941 34.7572L57.7246 35.024L57.6443 35.2888L57.5534 35.5513L57.4517 35.8121L57.3393 36.0709L57.2163 36.3278L57.0825 36.5825L56.9381 36.8353L56.7829 37.0863L56.6171 37.3351L56.4417 37.5811L56.2584 37.8231L56.0669 38.061L55.8674 38.2951L55.6596 38.5251L55.4437 38.7512L55.2198 38.9733L54.9877 39.1917L54.7475 39.4058L54.4991 39.616L54.2428 39.8225L53.9782 40.0247L53.7055 40.223L53.4248 40.4175L53.1358 40.6079L52.8388 40.7945L52.6875 40.8861L52.5344 40.9765L52.3796 41.0659L52.223 41.154L52.0648 41.2409L51.9048 41.3266L51.7432 41.4111L51.5798 41.4945L51.4148 41.5764L51.2483 41.6574L51.0798 41.7371L50.9097 41.8157L50.7378 41.893L50.5641 41.9693L50.3888 42.0442L50.2119 42.1179L50.0331 42.1905L49.8527 42.2618L49.6707 42.332L49.4869 42.4009L49.3013 42.4687L49.1141 42.5353L48.9251 42.6008L48.7345 42.6648L48.5421 42.7278L48.3481 42.7896L48.1522 42.8501L47.9548 42.9097L47.7556 42.9678L47.5547 43.025L47.3523 43.0807L47.148 43.1354L46.9422 43.1886L46.7355 43.2402L46.5277 43.2901L46.3189 43.3382L46.109 43.3846L45.8979 43.4293L45.686 43.4725L45.4728 43.5137L45.2587 43.5534L45.0434 43.5916L44.8272 43.6278L44.6097 43.6625L44.3914 43.6955L44.1719 43.7267L43.9513 43.7562L43.7299 43.784L43.5073 43.8102L43.2836 43.8347L43.0587 43.8575L42.833 43.8786L42.606 43.8981L42.378 43.9159L42.149 43.9319L41.9189 43.9462L41.6879 43.9588L41.4557 43.9699L41.2224 43.9792L40.988 43.9868L40.7526 43.9927L40.5162 43.9968L40.2787 43.9994L40.0402 44.0003L39.8017 43.9994L39.5642 43.9968L39.3277 43.9927L39.0923 43.9868L38.858 43.9792L38.6248 43.9699L38.3925 43.9588L38.1614 43.9462L37.9313 43.9319L37.7023 43.9159L37.4743 43.8981L37.2474 43.8786L37.0216 43.8575L36.7969 43.8347L36.5731 43.8102L36.3505 43.784L36.129 43.7562L35.9086 43.7267L35.6891 43.6955L35.4706 43.6625L35.2533 43.6278L35.0371 43.5916L34.8219 43.5534L34.6077 43.5137L34.3945 43.4725L34.1826 43.4293L33.9715 43.3846L33.7617 43.3382L33.5528 43.2901L33.345 43.2402L33.1383 43.1886L32.9326 43.1354L32.7282 43.0807L32.5256 43.025L32.3247 42.9678L32.1255 42.9097L31.9281 42.8501L31.7324 42.7896L31.5382 42.7278L31.346 42.6648L31.1553 42.6008L30.9663 42.5353L30.779 42.4687L30.5935 42.4009L30.4097 42.332L30.2276 42.2618L30.0473 42.1905L29.8686 42.1179L29.6916 42.0442L29.5162 41.9693L29.3428 41.893L29.1709 41.8157L29.0007 41.7371L28.8323 41.6574L28.6657 41.5764L28.5005 41.4945L28.3373 41.4111L28.1756 41.3266L28.0157 41.2409L27.8575 41.154L27.7009 41.0659L27.5461 40.9765L27.3931 40.8861L27.2417 40.7945L26.9447 40.6079L26.6558 40.4175L26.375 40.223L26.1023 40.0247L25.8377 39.8225L25.5814 39.616L25.3331 39.4058L25.0928 39.1917L24.8607 38.9733L24.6369 38.7512L24.4209 38.5251L24.2132 38.2951L24.0136 38.061L23.8221 37.8231L23.6388 37.5811L23.4634 37.3351L23.2976 37.0863L23.1424 36.8353L22.998 36.5825L22.8642 36.3278L22.7412 36.0709L22.6288 35.8121L22.5272 35.5513L22.4362 35.2888L22.356 35.024L22.2864 34.7572L22.2276 34.4885L22.1794 34.2179L22.142 33.9452L22.1152 33.6706L22.0992 33.394V30.6309L22.1152 30.9075L22.142 31.1821L22.1794 31.4548L22.2276 31.7254L22.2864 31.9941L22.356 32.2609L22.4362 32.5257L22.5272 32.7884L22.6288 33.0491L22.7412 33.308L22.8642 33.5648L22.998 33.8196L23.1424 34.0724L23.2976 34.3233L23.4634 34.5722L23.6388 34.8181L23.8221 35.0601L24.0136 35.2981L24.2132 35.532L24.4209 35.762L24.6369 35.9881L24.8607 36.2102L25.0928 36.4286L25.3331 36.6427L25.5814 36.8529L25.8377 37.0594L26.1023 37.2616L26.375 37.4599L26.6558 37.6544L26.9447 37.8448L27.2417 38.0314L27.3931 38.123L27.5461 38.2134L27.7009 38.3028L27.8575 38.3909L28.0157 38.4778L28.1756 38.5634L28.3373 38.648L28.5005 38.7314L28.6657 38.8133L28.8323 38.8943L29.0007 38.974L29.1709 39.0526L29.3428 39.1299L29.5162 39.2062L29.6916 39.2811L29.8686 39.3548L30.0473 39.4274L30.2276 39.4987L30.4097 39.5689L30.5935 39.6378L30.779 39.7056L30.9663 39.7722L31.1553 39.8376L31.346 39.9019L31.5382 39.9648L31.7324 40.0266L31.9281 40.0872L32.1255 40.1467L32.3247 40.2049L32.5256 40.262L32.7282 40.3178L32.9326 40.3725L33.1383 40.4256L33.345 40.4773L33.5528 40.5271L33.7617 40.5753L33.9715 40.6217L34.1826 40.6664L34.3945 40.7096L34.6077 40.7508L34.8219 40.7905L35.0371 40.8286L35.2533 40.8649L35.4706 40.8996L35.6891 40.9325L35.9086 40.9638L36.129 40.9933L36.3505 41.0211L36.5731 41.0473L36.7969 41.0718L37.0216 41.0946L37.2474 41.1156L37.4743 41.1352L37.7023 41.1529L37.9313 41.169L38.1614 41.1833L38.3925 41.1959L38.6248 41.2069L38.858 41.2163L39.0923 41.2239L39.3277 41.2297L39.5642 41.2339L39.8017 41.2365L40.0402 41.2373L40.2787 41.2365L40.5162 41.2339L40.7526 41.2297L40.988 41.2239L41.2224 41.2163L41.4557 41.2069L41.6879 41.1959L41.9189 41.1833L42.149 41.169L42.378 41.1529L42.606 41.1352L42.833 41.1156L43.0587 41.0946L43.2836 41.0718L43.5073 41.0473L43.7299 41.0211L43.9513 40.9933L44.1719 40.9638L44.3914 40.9325L44.6097 40.8996L44.8272 40.8649L45.0434 40.8286L45.2587 40.7905L45.4728 40.7508L45.686 40.7096L45.8979 40.6664L46.109 40.6217L46.3189 40.5753L46.5277 40.5271L46.7355 40.4773L46.9422 40.4256L47.148 40.3725L47.3523 40.3178L47.5547 40.262L47.7556 40.2049L47.9548 40.1467L48.1522 40.0872L48.3481 40.0266L48.5421 39.9648L48.7345 39.9019L48.9251 39.8376L49.1141 39.7722L49.3013 39.7056L49.4869 39.6378L49.6707 39.5689L49.8527 39.4987L50.0331 39.4274L50.2119 39.3548L50.3888 39.2811L50.5641 39.2062L50.7378 39.1299L50.9097 39.0526L51.0798 38.974L51.2483 38.8943L51.4148 38.8133L51.5798 38.7314L51.7432 38.648L51.9048 38.5634L52.0648 38.4778L52.223 38.3909L52.3796 38.3028L52.5344 38.2134L52.6875 38.123L52.8388 38.0314L53.1358 37.8448L53.4248 37.6544L53.7055 37.4599L53.9782 37.2616L54.2428 37.0594L54.4991 36.8529L54.7475 36.6427L54.9877 36.4286L55.2198 36.2102L55.4437 35.9881L55.6596 35.762L55.8674 35.532L56.0669 35.2981L56.2584 35.0601L56.4417 34.8181L56.6171 34.5722L56.7829 34.3233L56.9381 34.0724L57.0825 33.8196L57.2163 33.5648L57.3393 33.308L57.4517 33.0491L57.5534 32.7884L57.6443 32.5257L57.7246 32.2609L57.7941 31.9941L57.853 31.7254L57.9011 31.4548L57.9386 31.1821L57.9653 30.9075L57.9814 30.6309Z" fill="#493E3E"/>
<path fill-rule="evenodd" clip-rule="evenodd" d="M22.0938 30.3522C22.0938 28.8613 22.5503 27.4547 23.4635 26.1327C24.1207 25.181 24.9574 24.3171 25.9734 23.5404C26.8658 24.1574 27.8192 24.715 28.8333 25.2131L22.0948 30.467L22.0938 30.3522ZM31.6012 26.3712C32.8435 26.8059 34.1329 27.1361 35.4691 27.3617L24.5369 35.885C24.1376 35.4677 23.7798 35.03 23.4635 34.5721C23.1733 34.1521 22.9293 33.7235 22.7315 33.2865L31.6012 26.3712ZM39.2644 27.7186C39.4941 27.7239 39.7249 27.7267 39.957 27.7267C41.7022 27.7267 43.3782 27.5724 44.985 27.2643L29.6144 39.2482C28.7632 38.8849 27.9723 38.4791 27.2417 38.0313C27.0154 37.8927 26.7961 37.7505 26.5836 37.6052L39.2644 27.7186ZM54.0601 23.5049C54.9549 24.1828 55.7122 24.9277 56.3318 25.7399L36.6829 41.0595C35.3786 40.9166 34.1286 40.6876 32.9326 40.3724C32.8062 40.3391 32.6808 40.3049 32.5565 40.2704L54.0601 23.5049ZM57.6053 28.0631C57.8595 28.8028 57.9867 29.5656 57.9867 30.3522C57.9867 30.8807 57.9294 31.3985 57.8147 31.9057L46.8604 40.4463C44.9489 40.9245 42.9006 41.1858 40.7167 41.2303L57.6053 28.0631Z" fill="#493E3E"/>
<path d="M0 0.447266H18.6388V19.9416H12.9726V5.46004H5.66618V19.9416H0V0.447266Z" fill="#493E3E"/>
<path d="M62.1241 0.447266H72.2724C73.4256 0.447266 74.4794 0.618999 75.4337 0.962446C76.3879 1.30572 77.203 1.78412 77.879 2.3968C78.5549 3.00931 79.0819 3.73366 79.4596 4.56897C79.8372 5.40429 80.0262 6.30486 80.0262 7.2703C80.0262 8.25422 79.8372 9.15925 79.4596 9.98542C79.0819 10.8116 78.5549 11.5313 77.879 12.1438C77.203 12.7565 76.3879 13.2347 75.4337 13.578C74.4794 13.9214 73.4254 14.0933 72.2724 14.0933H67.7903V19.9416H62.1241V0.447266ZM71.9742 9.35893C72.6502 9.35893 73.217 9.15011 73.6741 8.73245C74.1313 8.31479 74.36 7.82724 74.36 7.2703C74.36 6.71337 74.1313 6.2258 73.6741 5.80814C73.217 5.39048 72.65 5.18149 71.9742 5.18149H67.7903V9.35893H71.9742Z" fill="#493E3E"/>
<path d="M92.4681 11.4476L90.5893 5.87787H90.47L88.5913 11.4476H92.4681ZM87.3984 0.447266H93.661L101.564 19.9416H95.4504L93.9592 15.7643H87.1001L85.609 19.9416H79.4955L87.3984 0.447266Z" fill="#493E3E"/>
<path d="M0 22.5278H18.6388V43.4033H12.9726V27.8958H5.66618V43.4033H0V22.5278Z" fill="#493E3E"/>
<path d="M62.1241 22.5278H78.079V27.5976H67.7903V30.5798H75.6932V35.3513H67.7903V38.3336H78.3773V43.4033H62.1241V22.5278Z" fill="#493E3E"/>
<path d="M100.893 39.974C100.237 40.7295 99.4614 41.4056 98.5667 42.002C97.8111 42.5189 96.8669 42.9811 95.7335 43.3888C94.6003 43.7962 93.2882 44.0001 91.797 44.0001C90.1271 44.0001 88.5812 43.7118 87.1598 43.1352C85.7382 42.5586 84.5104 41.7733 83.4766 40.7793C82.4429 39.7852 81.6327 38.6171 81.0461 37.2751C80.4597 35.9332 80.1664 34.4968 80.1664 32.9658C80.1664 31.4349 80.4597 29.9985 81.0461 28.6565C81.6327 27.3146 82.4429 26.1465 83.4766 25.1524C84.5104 24.1583 85.7382 23.3731 87.1598 22.7965C88.5812 22.2198 90.1271 21.9316 91.797 21.9316C93.2882 21.9316 94.5905 22.1403 95.7039 22.5579C96.8172 22.9754 97.7516 23.4426 98.507 23.9595C99.3819 24.556 100.127 25.222 100.744 25.9576L97.3143 29.8345C96.8569 29.3375 96.3499 28.8901 95.7933 28.4925C95.2962 28.1546 94.7146 27.8463 94.0486 27.5679C93.3826 27.2897 92.6322 27.1505 91.797 27.1505C90.9819 27.1505 90.2165 27.2996 89.5008 27.5978C88.7851 27.896 88.1688 28.3085 87.6519 28.8354C87.135 29.3623 86.7273 29.9786 86.4291 30.6845C86.1309 31.3902 85.9817 32.1506 85.9817 32.9658C85.9817 33.7809 86.1309 34.5465 86.4291 35.2622C86.7273 35.9779 87.135 36.5942 87.6519 37.1111C88.1688 37.628 88.7851 38.0357 89.5008 38.3339C90.2165 38.6321 90.9819 38.7812 91.797 38.7812C92.6322 38.7812 93.3876 38.6419 94.0636 38.3636C94.7395 38.0854 95.3359 37.7771 95.853 37.4392C96.4493 37.0614 96.9862 36.6141 97.4634 36.0972L100.893 39.974Z" fill="#493E3E"/>
<path d="M107.901 27.5976H102.086V22.5278H119.383V27.5976H113.567V43.4033H107.901V27.5976Z" fill="#493E3E"/>
<path d="M122.365 22.5278H128.031V28.7905H131.759C132.912 28.7905 133.966 28.9744 134.92 29.3422C135.874 29.71 136.689 30.2219 137.365 30.8781C138.042 31.5341 138.568 32.3095 138.946 33.2042C139.324 34.0989 139.513 35.0631 139.513 36.0969C139.513 37.1505 139.324 38.1198 138.946 39.0046C138.568 39.8893 138.042 40.6597 137.365 41.3157C136.689 41.9719 135.874 42.4838 134.92 42.8516C133.966 43.2194 132.912 43.4033 131.759 43.4033H122.365V22.5278ZM131.461 38.3336C132.137 38.3336 132.703 38.11 133.161 37.6626C133.618 37.2153 133.846 36.6934 133.846 36.0969C133.846 35.5004 133.618 34.9785 133.161 34.5312C132.703 34.0839 132.137 33.8602 131.461 33.8602H128.031V38.3336H131.461Z" fill="#493E3E"/>
<path fill-rule="evenodd" clip-rule="evenodd" d="M22.0934 11.1222L22.0936 11.0938C22.0939 11.0238 22.0942 10.9558 22.0934 10.885C22.0934 9.39404 22.5499 7.98729 23.4631 6.66528C24.3762 5.3431 25.6356 4.19005 27.2413 3.20579C28.8471 2.2217 30.744 1.44145 32.9324 0.864836C35.1206 0.288225 37.4899 0 40.0402 0C42.5905 0 44.9599 0.288225 47.1481 0.864836C49.3362 1.44145 51.2334 2.2217 52.8392 3.20579C54.4449 4.19005 55.7043 5.3431 56.6174 6.66528C57.5304 7.98729 57.9871 9.39404 57.9871 10.885C57.9863 10.956 57.9866 11.0245 57.9869 11.0946L57.9871 11.1222C57.9945 13.2058 57.5304 15.1717 56.6174 17.0194C55.7043 18.8671 54.4449 20.4784 52.8392 21.8537C51.2334 23.2291 49.3362 24.3195 47.1481 25.1253C44.9599 25.9311 42.5905 26.3339 40.0402 26.3339C37.4899 26.3339 35.1206 25.9311 32.9324 25.1253C30.744 24.3195 28.8471 23.2291 27.2413 21.8537C25.6356 20.4784 24.3762 18.8671 23.4631 17.0194C22.5499 15.1717 22.0934 13.206 22.0934 11.1222ZM25.5971 10.1439C25.5971 9.11236 25.9645 8.13931 26.6992 7.22477C27.4343 6.30989 28.4479 5.51203 29.7401 4.83135C31.0324 4.15015 32.5591 3.61066 34.3198 3.21164C36.081 2.81279 37.9878 2.61328 40.0402 2.61328C42.0926 2.61328 43.9996 2.81279 45.7605 3.21164C47.5214 3.61066 49.0483 4.15015 50.3405 4.83135C51.6328 5.51203 52.6464 6.30989 53.3814 7.22477C54.1159 8.13931 54.4836 9.11236 54.4836 10.1439C54.4836 11.1756 54.1159 12.149 53.3814 13.0635C53.1182 13.3909 52.8195 13.7033 52.4848 14.0009C51.1796 13.4059 49.7438 12.9022 48.1781 12.4895C45.6729 11.8294 42.96 11.4994 40.0402 11.4994C37.1202 11.4994 34.4076 11.8294 31.9024 12.4895C30.3363 12.9022 28.9008 13.4058 27.5955 14.0007C27.261 13.7031 26.9623 13.3909 26.6992 13.0635C25.9645 12.149 25.5971 11.1756 25.5971 10.1439ZM50.3405 15.4567C50.716 15.2588 51.0681 15.0511 51.3965 14.8335C50.3929 14.4357 49.3201 14.0861 48.1781 13.7852C45.6729 13.1249 42.96 12.7949 40.0402 12.7949C37.1202 12.7949 34.4076 13.1249 31.9024 13.7852C30.7604 14.0861 29.6874 14.4354 28.6838 14.8332C29.0122 15.051 29.3645 15.2588 29.74 15.4567C31.0324 16.1379 32.5591 16.6772 34.3198 17.0764C36.081 17.4751 37.9878 17.6748 40.0402 17.6748C42.0926 17.6748 43.9996 17.4751 45.7605 17.0764C47.5214 16.6772 49.0483 16.1379 50.3405 15.4567Z" fill="#493E3E"/>
</svg>
