<svg width="29" height="30" viewBox="0 0 29 30" fill="none" xmlns="http://www.w3.org/2000/svg">
<path d="M23.0406 2.86599L23.8469 7.98762L28.4868 10.3627L26.147 15.0066L28.5 19.6506L23.8205 22.0257L23.0141 27.1473L17.872 26.3379L14.2103 30L10.5355 26.2848L5.43298 27.134L4.6134 21.9726L0 19.6108L2.35297 14.9668L0.0132189 10.3627L4.65306 7.96108L5.45941 2.87926L10.5751 3.72844L14.25 0L17.9116 3.67536L23.0406 2.86599ZM10.9453 8.3724C10.4194 8.3724 9.91504 8.58209 9.54319 8.95534C9.17133 9.32859 8.96243 9.83482 8.96243 10.3627C8.96243 10.8905 9.17133 11.3968 9.54319 11.77C9.91504 12.1433 10.4194 12.3529 10.9453 12.3529C11.4711 12.3529 11.9755 12.1433 12.3473 11.77C12.7192 11.3968 12.9281 10.8905 12.9281 10.3627C12.9281 9.83482 12.7192 9.32859 12.3473 8.95534C11.9755 8.58209 11.4711 8.3724 10.9453 8.3724ZM17.5547 17.6603C17.0288 17.6603 16.5245 17.87 16.1527 18.2433C15.7808 18.6165 15.5719 19.1227 15.5719 19.6506C15.5719 20.1785 15.7808 20.6847 16.1527 21.0579C16.5245 21.4312 17.0288 21.6409 17.5547 21.6409C18.0806 21.6409 18.585 21.4312 18.9568 21.0579C19.3287 20.6847 19.5376 20.1785 19.5376 19.6506C19.5376 19.1227 19.3287 18.6165 18.9568 18.2433C18.585 17.87 18.0806 17.6603 17.5547 17.6603ZM9.50441 21.6409L20.8595 10.2433L18.9956 8.3724L7.64054 19.77L9.50441 21.6409Z" fill="#FAF6F2"/>
</svg>
