<svg width="56" height="62" viewBox="0 0 56 62" fill="none" xmlns="http://www.w3.org/2000/svg">
<path d="M26.7373 17.418C25.7003 17.925 24.456 18.4109 23.1494 19.256C20.9925 20.6715 19.3127 22.8053 18.2135 25.1926C16.4507 28.9954 16.3055 33.5377 17.8609 37.425" stroke="#A98C64" stroke-width="2" stroke-miterlimit="10" stroke-linecap="round"/>
<path d="M22.2783 43.6365C23.1286 44.2492 24.0411 44.9675 25.244 45.6013C27.5253 46.8055 30.1799 47.2069 32.7515 46.9957C36.8579 46.6576 40.7983 44.5027 43.3285 41.1858" stroke="#A98C64" stroke-width="2" stroke-miterlimit="10" stroke-linecap="round"/>
<path d="M19.209 43.1295L19.3956 40.5098L21.9673 40.6999" stroke="#A98C64" stroke-width="2" stroke-miterlimit="10" stroke-linecap="round"/>
<path d="M28.3757 14.9885L30.4911 16.4674L29.0186 18.6223" stroke="#A98C64" stroke-width="2" stroke-miterlimit="10" stroke-linecap="round"/>
<path d="M47.6007 36.8972L45.3402 38.1436L44.1166 35.8408" stroke="#A98C64" stroke-width="2" stroke-miterlimit="10" stroke-linecap="round"/>
<path d="M46.3979 34.0872C46.5016 33.052 46.6468 31.9112 46.5846 30.5591C46.4601 27.9394 45.4854 25.383 44.0129 23.2281C41.6694 19.7633 37.8742 17.376 33.7886 16.7844" stroke="#A98C64" stroke-width="2" stroke-miterlimit="10" stroke-linecap="round"/>
<path d="M8.90158 12.5169H2.88725C1.8503 12.5169 1 11.6507 1 10.5944C1 9.53807 1.8503 8.67188 2.88725 8.67188H8.88084C9.91779 8.67188 10.7681 9.53807 10.7681 10.5944C10.7888 11.6507 9.93853 12.5169 8.90158 12.5169Z" stroke="#A98C64" stroke-width="2" stroke-miterlimit="10" stroke-linecap="round" stroke-linejoin="round"/>
<path d="M8.90158 22.7213H2.88725C1.8503 22.7213 1 21.8551 1 20.7988C1 19.7424 1.8503 18.8762 2.88725 18.8762H8.88084C9.91779 18.8762 10.7681 19.7424 10.7681 20.7988C10.7888 21.8551 9.93853 22.7213 8.90158 22.7213Z" stroke="#A98C64" stroke-width="2" stroke-miterlimit="10" stroke-linecap="round" stroke-linejoin="round"/>
<path d="M9.04675 32.9466H2.74208C1.78808 32.9466 1 32.1438 1 31.172V30.8762C1 29.9044 1.78808 29.1016 2.74208 29.1016H9.04675C10.0007 29.1016 10.7888 29.9044 10.7888 30.8762V31.172C10.7888 32.1438 10.0007 32.9466 9.04675 32.9466Z" stroke="#A98C64" stroke-width="2" stroke-miterlimit="10" stroke-linecap="round" stroke-linejoin="round"/>
<path d="M8.90158 43.1507H2.88725C1.8503 43.1507 1 42.2845 1 41.2282C1 40.1719 1.8503 39.3057 2.88725 39.3057H8.88084C9.91779 39.3057 10.7681 40.1719 10.7681 41.2282C10.7888 42.2845 9.93853 43.1507 8.90158 43.1507Z" stroke="#A98C64" stroke-width="2" stroke-miterlimit="10" stroke-linecap="round" stroke-linejoin="round"/>
<path d="M8.90158 53.3548H2.88725C1.8503 53.3548 1 52.4886 1 51.4323C1 50.376 1.8503 49.5098 2.88725 49.5098H8.88084C9.91779 49.5098 10.7681 50.376 10.7681 51.4323C10.7888 52.5098 9.93853 53.3548 8.90158 53.3548Z" stroke="#A98C64" stroke-width="2" stroke-miterlimit="10" stroke-linecap="round" stroke-linejoin="round"/>
<path d="M5.89453 12.5171V18.8762" stroke="#A98C64" stroke-width="2" stroke-miterlimit="10" stroke-linecap="round" stroke-linejoin="round"/>
<path d="M5.89453 22.7214V29.1017" stroke="#A98C64" stroke-width="2" stroke-miterlimit="10" stroke-linecap="round" stroke-linejoin="round"/>
<path d="M5.89453 32.9465V39.3057" stroke="#A98C64" stroke-width="2" stroke-miterlimit="10" stroke-linecap="round" stroke-linejoin="round"/>
<path d="M5.89453 43.1506V49.5098" stroke="#A98C64" stroke-width="2" stroke-miterlimit="10" stroke-linecap="round" stroke-linejoin="round"/>
<path d="M5.89453 53.355V58.1719C5.89453 59.7353 7.13887 61.0029 8.67356 61.0029H54.3202V34.8057V1.00293H8.67356C7.13887 1.00293 5.89453 2.27054 5.89453 3.83392V8.65082" stroke="#A98C64" stroke-width="2" stroke-miterlimit="10" stroke-linecap="round" stroke-linejoin="round"/>
<path d="M39.4711 33.7284C39.4711 30.3269 36.8994 26.9255 32.1916 26.9255C27.4839 26.9255 24.9122 30.3269 24.9122 33.7284" stroke="#A98C64" stroke-width="2" stroke-miterlimit="10" stroke-linecap="round"/>
<path d="M23.5227 34.5945H40.8398" stroke="#A98C64" stroke-width="2" stroke-miterlimit="10" stroke-linecap="round"/>
<path d="M24.8915 34.5945C24.8915 35.8621 25.887 36.8762 27.1313 36.8762H32.1709H37.2105C38.4548 36.8762 39.4503 35.8621 39.4503 34.5945" stroke="#A98C64" stroke-width="2" stroke-miterlimit="10" stroke-linecap="round"/>
<path d="M32.1917 26.9254V25.1508" stroke="#A98C64" stroke-width="2" stroke-miterlimit="10" stroke-linecap="round"/>
</svg>
