<svg width="54" height="66" viewBox="0 0 54 66" fill="none" xmlns="http://www.w3.org/2000/svg">
<path d="M15.1565 19.6225C15.1565 19.6225 15.0669 12.4594 18.4696 8.58874C22.029 4.51782 38.5498 4.51782 42.736 4.51782" stroke="#A98C64" stroke-width="2" stroke-miterlimit="10" stroke-linecap="round"/>
<path d="M38.2365 13.0823H42.736" stroke="#A98C64" stroke-width="2" stroke-miterlimit="10" stroke-linecap="round"/>
<path d="M52.7649 1.00293H43.8776C43.2508 1.00293 42.736 1.51457 42.736 2.13745V15.24C42.736 15.8629 43.2508 16.3745 43.8776 16.3745H52.7649" stroke="#A98C64" stroke-width="2" stroke-miterlimit="10" stroke-linecap="round"/>
<path d="M38.2364 13.0823C37.05 13.0823 35.9978 13.7719 35.5501 14.8619C34.9233 16.4191 33.4234 18.6436 29.9536 20.0451C28.8567 20.49 27.7822 20.9794 26.7972 21.6023C25.8122 22.2252 24.5362 23.204 23.3722 23.9825C22.0738 24.8279 21.2679 24.9169 20.4396 23.9825C20.4172 23.9603 20.4172 23.9381 20.3948 23.9158C19.7232 23.115 19.88 21.936 20.7082 21.3131C22.0738 20.2898 23.9766 18.9106 25.7898 16.4413C26.3943 15.6405 25.8122 14.4837 24.7601 14.4837C24.7601 14.4837 22.8349 14.328 21.335 16.0854" stroke="#A98C64" stroke-width="2" stroke-miterlimit="10" stroke-linecap="round"/>
<path d="M28.2971 23.3374C28.924 24.5831 29.2597 25.9846 29.2597 27.4751C29.2597 29.1435 28.812 30.7229 28.0509 32.0799" stroke="#A98C64" stroke-width="2" stroke-miterlimit="10" stroke-linecap="round"/>
<path d="M11.6196 31.9242C10.9032 30.6117 10.4779 29.0767 10.4779 27.4751C10.4779 19.8894 18.7607 16.8195 23.4394 19.0663" stroke="#A98C64" stroke-width="2" stroke-miterlimit="10" stroke-linecap="round"/>
<path d="M13.0076 27.4749H26.7525" stroke="#A98C64" stroke-width="2" stroke-miterlimit="10" stroke-linecap="round"/>
<path d="M29.4388 27.4749H34.5651C35.4606 27.4749 36.1993 28.1645 36.2665 29.0543L38.908 61.5994C39.0647 63.4457 37.5872 65.0029 35.7292 65.0029H12.6941H27.2449H4.18741C2.32938 65.0029 0.874289 63.4235 1.0086 61.5994L3.65015 29.0543C3.7173 28.1645 4.45604 27.4749 5.35148 27.4749H10.4779" stroke="#A98C64" stroke-width="2" stroke-miterlimit="10" stroke-linecap="round"/>
<path d="M20.2381 23.7154C20.2381 23.7154 16.9249 24.0936 15.8728 21.4019" stroke="#A98C64" stroke-width="2" stroke-miterlimit="10" stroke-linecap="round"/>
<path d="M13.0075 36.8627C14.454 36.8627 15.6266 35.6974 15.6266 34.2599C15.6266 32.8225 14.454 31.6572 13.0075 31.6572C11.5609 31.6572 10.3883 32.8225 10.3883 34.2599C10.3883 35.6974 11.5609 36.8627 13.0075 36.8627Z" stroke="#A98C64" stroke-width="2" stroke-miterlimit="10" stroke-linecap="round"/>
<path d="M26.4838 36.8627C27.9303 36.8627 29.1029 35.6974 29.1029 34.2599C29.1029 32.8225 27.9303 31.6572 26.4838 31.6572C25.0373 31.6572 23.8646 32.8225 23.8646 34.2599C23.8646 35.6974 25.0373 36.8627 26.4838 36.8627Z" stroke="#A98C64" stroke-width="2" stroke-miterlimit="10" stroke-linecap="round"/>
<path d="M20.2381 41.0447L28.3642 45.6272L20.2381 50.2765L12.1344 45.6272L20.2381 41.0447Z" stroke="#A98C64" stroke-width="2" stroke-miterlimit="10" stroke-linecap="round" stroke-linejoin="round"/>
<path d="M20.2381 59.5753L12.1344 54.926V45.6274" stroke="#A98C64" stroke-width="2" stroke-miterlimit="10" stroke-linecap="round"/>
<path d="M20.2382 59.5753L28.3643 54.926V45.6274" stroke="#A98C64" stroke-width="2" stroke-miterlimit="10" stroke-linecap="round"/>
<path d="M20.2382 50.2764V56.4606" stroke="#A98C64" stroke-width="2" stroke-miterlimit="10" stroke-linecap="round"/>
</svg>
