<svg width="51" height="68" viewBox="0 0 51 68" fill="none" xmlns="http://www.w3.org/2000/svg">
<path d="M25.5474 31.7989C25.5474 31.7989 29.7782 31.5378 31.8027 27.2307C33.8272 22.9235 31.3615 19.4778 31.3615 19.4778C31.3615 19.4778 27.1307 19.7388 25.1062 24.046C24.5611 25.1685 24.3275 26.2648 24.3016 27.2307" stroke="#A98C64" stroke-width="2" stroke-miterlimit="10" stroke-linecap="round" stroke-linejoin="round"/>
<path d="M25.3917 31.7989C25.3917 31.7989 21.161 31.5378 19.1365 27.2307C17.1119 22.9235 19.5777 19.4778 19.5777 19.4778C19.5777 19.4778 21.6022 19.6083 23.5229 21.0962" stroke="#A98C64" stroke-width="2" stroke-miterlimit="10" stroke-linecap="round" stroke-linejoin="round"/>
<path d="M25.4436 31.7988V36.6542" stroke="#A98C64" stroke-width="2" stroke-miterlimit="10" stroke-linecap="round" stroke-linejoin="round"/>
<path d="M48.2843 29.0582C50.4906 27.3092 50.4906 23.9418 48.2843 22.1928C46.753 20.9921 46.2079 18.9298 46.9347 17.1287C47.9729 14.4922 46.3117 11.5685 43.5085 11.177C41.5878 10.8898 40.1084 9.40189 39.8229 7.47019C39.4335 4.67707 36.5265 2.98031 33.905 4.02447C32.1141 4.75538 30.0636 4.20719 28.8697 2.66706C27.1306 0.44822 23.7824 0.44822 22.0434 2.66706C20.8754 4.20719 18.8249 4.75538 17.034 4.02447C14.4125 2.98031 11.5055 4.65096 11.1161 7.47019C10.8306 9.37578 9.32521 10.8898 7.43046 11.177C4.62727 11.5685 2.96613 14.4922 4.00434 17.1287C4.7311 18.9298 4.18603 20.9921 2.65466 22.1928C0.448447 23.9418 0.448447 27.3092 2.65466 29.0582C4.18603 30.259 4.7311 32.3212 4.00434 34.1224C2.96613 36.7589 4.62727 39.6825 7.43046 40.0741C9.35117 40.3612 10.8306 41.8491 11.1161 43.7808C11.5055 46.574 14.4125 48.2707 17.034 47.2266C18.8249 46.4957 20.8754 47.0438 22.0693 48.584C23.8083 50.8028 27.1566 50.8028 28.8956 48.584C30.0896 47.0438 32.14 46.4957 33.931 47.2266C36.5525 48.2707 39.4595 46.6001 39.8488 43.7808C40.1343 41.8491 41.6138 40.3612 43.5345 40.0741C46.3117 39.6825 47.9988 36.7589 46.9606 34.1224C46.2339 32.3212 46.7789 30.259 48.2843 29.0582Z" stroke="#A98C64" stroke-width="2" stroke-miterlimit="10"/>
<path d="M15.6582 14.257C18.2797 11.9338 21.7058 10.5242 25.4953 10.5242C29.2329 10.5242 32.659 11.9077 35.2805 14.2309" stroke="#A98C64" stroke-width="2" stroke-miterlimit="10" stroke-linecap="round"/>
<path d="M35.2805 36.9678C32.659 39.291 29.2329 40.7006 25.4434 40.7006C21.7058 40.7006 18.2797 39.3171 15.6582 36.9939" stroke="#A98C64" stroke-width="2" stroke-miterlimit="10" stroke-linecap="round"/>
<path d="M27.5719 49.706L31.7248 65.0029L35.7998 57.8243L42.8597 61.8704L38.603 46.2341" stroke="#A98C64" stroke-width="2" stroke-miterlimit="10"/>
<path d="M23.2891 49.706L19.1362 65.0029L15.0612 57.8243L8.00134 61.8704L12.2321 46.2341" stroke="#A98C64" stroke-width="2" stroke-miterlimit="10"/>
</svg>
