<svg width="49" height="66" viewBox="0 0 49 66" fill="none" xmlns="http://www.w3.org/2000/svg">
<path d="M32.4102 43.2356C32.4102 43.2356 40.6382 47.6846 43.8162 50.2454C44.5781 50.8531 45.2093 51.591 45.7318 52.4156C46.6895 53.9565 47.1466 55.7578 47.1466 57.5591V65.0029H24.1169H24.0298H1V57.5591C1 55.7578 1.45711 53.9565 2.41487 52.4156C2.93729 51.591 3.56854 50.8531 4.33039 50.2454C7.53018 47.6846 15.7364 43.2356 15.7364 43.2356" stroke="#A98C64" stroke-width="2" stroke-miterlimit="10" stroke-linecap="round"/>
<path d="M35.1528 29.1289C35.4576 30.4093 35.6317 31.7766 35.6317 33.1872C35.6317 41.1085 30.4293 47.5541 24.0298 47.5541C17.6302 47.5541 12.4278 41.1302 12.4278 33.1872C12.4278 31.7766 12.6019 30.4093 12.9067 29.1289" stroke="#A98C64" stroke-width="2" stroke-miterlimit="10" stroke-linecap="round"/>
<path d="M11.9708 6.92771C9.53282 7.14473 7.39962 9.07623 6.6813 11.3984C5.98475 13.7205 6.8119 16.4333 8.72743 17.9742C9.98993 18.9942 11.5572 19.6669 13.168 19.9925V26.1342L13.2115 26.1559C20.2641 28.3912 27.8173 28.3912 34.8699 26.1559L34.9135 26.1342V19.9708C36.5242 19.6452 38.0915 18.9725 39.354 17.9524C41.2477 16.4333 42.0967 13.6988 41.4001 11.3767C40.6818 9.05453 38.5486 7.12303 36.1107 6.90601" stroke="#A98C64" stroke-width="2" stroke-miterlimit="10" stroke-linecap="round"/>
<path d="M13.7991 11.0945C12.689 10.0094 12.0359 8.62042 12.0359 7.10126C12.0359 3.73741 15.2793 1.00293 19.2627 1.00293C23.2461 1.00293 26.4894 3.73741 26.4894 7.10126" stroke="#A98C64" stroke-width="2" stroke-miterlimit="10" stroke-linecap="round"/>
<path d="M34.2822 11.0945C35.3923 10.0311 36.0454 8.62042 36.0454 7.10126C36.0454 3.73741 32.802 1.00293 28.8186 1.00293C28.2744 1.00293 27.752 1.04633 27.2514 1.15485" stroke="#A98C64" stroke-width="2" stroke-miterlimit="10" stroke-linecap="round"/>
<path d="M24.3999 56.4737C24.3999 56.669 24.2257 56.8426 24.0298 56.8426C23.8339 56.8426 23.6598 56.669 23.6598 56.4737C23.6598 56.2784 23.8339 56.1047 24.0298 56.1047C24.2475 56.1047 24.3999 56.2784 24.3999 56.4737Z" stroke="#A98C64" stroke-width="2" stroke-miterlimit="10" stroke-linecap="round"/>
<path d="M24.3999 60.8577C24.3999 61.053 24.2257 61.2266 24.0298 61.2266C23.8339 61.2266 23.6598 61.053 23.6598 60.8577C23.6598 60.6624 23.8339 60.4888 24.0298 60.4888C24.2475 60.4888 24.3999 60.6624 24.3999 60.8577Z" stroke="#A98C64" stroke-width="2" stroke-miterlimit="10" stroke-linecap="round"/>
<path d="M30.9083 50.0718L27.5562 53.4139L24.0299 50.6577L20.5253 53.4139L17.1732 50.0718" stroke="#A98C64" stroke-width="2" stroke-miterlimit="10" stroke-linecap="round" stroke-linejoin="round"/>
</svg>
