<svg width="69" height="67" viewBox="0 0 69 67" fill="none" xmlns="http://www.w3.org/2000/svg">
<path d="M31.25 10.4404H30V8.87793H30.6618C31.201 8.87793 31.4706 8.62793 31.4706 8.12793V7.00293H33.2353V8.87793H34.8529V10.4404H33.2353V12.5029C33.2353 12.7863 33.3186 13.0029 33.4853 13.1529C33.6618 13.3029 33.8971 13.3779 34.1912 13.3779C34.4069 13.3779 34.598 13.3571 34.7647 13.3154C34.8529 13.2988 34.9314 13.2779 35 13.2529V14.8154C34.8824 14.8488 34.7549 14.8821 34.6176 14.9154C34.5 14.9404 34.3578 14.9613 34.1912 14.9779C34.0343 14.9946 33.8627 15.0029 33.6765 15.0029C32.9412 15.0029 32.3529 14.8113 31.9118 14.4279C31.4706 14.0363 31.25 13.4779 31.25 12.7529V10.4404Z" fill="#A98C64"/>
<path d="M36.2258 7.00293C36.2258 7.23404 36.2989 7.42515 36.4452 7.57626C36.5914 7.72737 36.7763 7.80293 37 7.80293C37.2237 7.80293 37.4086 7.72737 37.5548 7.57626C37.7011 7.42515 37.7742 7.23404 37.7742 7.00293C37.7742 6.77182 37.7011 6.58071 37.5548 6.4296C37.4086 6.27849 37.2237 6.20293 37 6.20293C36.7763 6.20293 36.5914 6.27849 36.4452 6.4296C36.2989 6.58071 36.2258 6.77182 36.2258 7.00293ZM35 7.00293C35 6.73626 35.0473 6.48293 35.1419 6.24293C35.2452 6.00293 35.3828 5.7896 35.5548 5.60293C35.7355 5.41626 35.9462 5.2696 36.1871 5.16293C36.4366 5.05626 36.7075 5.00293 37 5.00293C37.2925 5.00293 37.5591 5.05626 37.8 5.16293C38.0495 5.2696 38.2602 5.41626 38.4323 5.60293C38.6129 5.7896 38.7505 6.00293 38.8452 6.24293C38.9484 6.48293 39 6.73626 39 7.00293C39 7.2696 38.9484 7.52293 38.8452 7.76293C38.7505 8.00293 38.6129 8.21626 38.4323 8.40293C38.2602 8.5896 38.0495 8.73626 37.8 8.84293C37.5591 8.9496 37.2925 9.00293 37 9.00293C36.7075 9.00293 36.4366 8.9496 36.1871 8.84293C35.9462 8.73626 35.7355 8.5896 35.5548 8.40293C35.3828 8.21626 35.2452 8.00293 35.1419 7.76293C35.0473 7.52293 35 7.2696 35 7.00293Z" fill="#A98C64"/>
<path d="M45.3407 15.7007L58.4603 23.1923L39.4333 34.2277" stroke="#A98C64" stroke-width="2" stroke-miterlimit="10" stroke-linecap="round" stroke-linejoin="round"/>
<path d="M29.3032 34.2039L10.3237 23.1923L23.4433 15.7007" stroke="#A98C64" stroke-width="2" stroke-miterlimit="10" stroke-linecap="round" stroke-linejoin="round"/>
<path d="M58.4604 39.127V51.0661L51.8413 54.8952L34.4039 65.003L10.3237 51.0661V38.7703" stroke="#A98C64" stroke-width="2" stroke-miterlimit="10" stroke-linecap="round"/>
<path d="M34.4038 43.1228V55.6565" stroke="#A98C64" stroke-width="2" stroke-miterlimit="10" stroke-linecap="round"/>
<path d="M58.4603 23.1926L67.7839 28.5914L43.7275 42.5282L34.4038 37.1295" stroke="#A98C64" stroke-width="2" stroke-miterlimit="10" stroke-linecap="round" stroke-linejoin="round"/>
<path d="M10.3237 23.1926L1 28.5914L25.0802 42.5282L34.4038 37.1295" stroke="#A98C64" stroke-width="2" stroke-miterlimit="10" stroke-linecap="round" stroke-linejoin="round"/>
<path d="M43.7275 10.3735C43.7275 15.5344 39.5521 19.744 34.3802 19.744C29.232 19.744 25.0328 15.5582 25.0328 10.3735C25.0328 5.21253 29.2083 1.00293 34.3802 1.00293C39.5521 1.00293 43.7275 5.18875 43.7275 10.3735Z" stroke="#A98C64" stroke-width="2" stroke-miterlimit="10" stroke-linecap="round"/>
</svg>
