<svg width="61" height="67" viewBox="0 0 61 67" fill="none" xmlns="http://www.w3.org/2000/svg">
<path d="M28.6085 46.2682H23.4019H9.2217C2.71342 46.2682 -1.19155 37.4115 2.31898 30.6561C3.99535 27.4355 6.57894 24.2148 10.5234 21.4655V18.0289C10.5234 17.4005 11.0361 16.8899 11.6672 16.8899H35.1365C35.7676 16.8899 36.2804 17.4005 36.2804 18.0289V21.4459C40.2248 24.1952 42.8084 27.4355 44.4848 30.6364" stroke="#A98C64" stroke-width="2" stroke-miterlimit="10" stroke-linecap="round" stroke-linejoin="round"/>
<path d="M5.13922 22.9778V18.9127C5.13922 14.8084 8.49197 11.47 12.6139 11.47H34.2096C38.3315 11.47 41.6842 14.8084 41.6842 18.9127V22.9778" stroke="#A98C64" stroke-width="2" stroke-miterlimit="10" stroke-linecap="round" stroke-linejoin="round"/>
<path d="M24.1119 4.3021C24.1119 6.12843 22.6327 7.60127 20.7985 7.60127C18.9644 7.60127 17.4655 6.12843 17.4655 4.3021C17.4655 2.47577 18.9447 1.00293 20.7788 1.00293C22.613 1.00293 24.1119 2.47577 24.1119 4.3021Z" stroke="#A98C64" stroke-width="2" stroke-miterlimit="10" stroke-linecap="round" stroke-linejoin="round"/>
<path d="M26.0248 1.00293C27.859 1.00293 29.3381 2.47577 29.3381 4.3021C29.3381 6.12843 27.859 7.60127 26.0248 7.60127" stroke="#A98C64" stroke-width="2" stroke-miterlimit="10" stroke-linecap="round" stroke-linejoin="round"/>
<path d="M39.8895 49.1158L44.7411 53.4362L51.7424 44.9133" stroke="#A98C64" stroke-width="2" stroke-miterlimit="10" stroke-linecap="round"/>
<path d="M59.3946 37.2938C50.7563 38.315 45.3919 33.3662 45.3919 33.3662C45.3919 33.3662 40.0275 38.315 31.3893 37.2938C31.3893 37.2938 28.6873 60.0934 45.3919 65.0029C62.0965 60.0738 59.3946 37.2938 59.3946 37.2938Z" stroke="#A98C64" stroke-width="2" stroke-miterlimit="10" stroke-linecap="round"/>
</svg>
