<svg width="390" height="299" viewBox="0 0 390 299" fill="none" xmlns="http://www.w3.org/2000/svg">
<path d="M64.8142 297.493L61.5927 297.367C61.8159 291.839 62.2548 286.223 62.9021 280.666C65.1193 261.689 69.7693 243.066 76.7257 225.323C77.8566 222.441 79.0395 219.67 81.0855 217.372C85.8472 212.029 93.5253 211.187 98.8895 211.017C99.9609 210.98 101.04 210.965 102.111 210.958C106.932 210.884 111.91 210.817 116.18 208.948C118.643 207.876 120.808 206.258 123.099 204.543C124.223 203.708 125.331 202.866 126.492 202.097C138.217 194.242 153.998 193.148 166.713 199.297C171.273 201.506 175.351 204.536 179.301 207.477L180.016 208.009C182.471 209.827 184.904 211.453 187.396 211.091C189.197 210.839 189.591 210.049 189.725 209.783C190.134 208.97 190.685 206.369 186.987 199.792C183.535 193.651 178.483 188.36 172.36 184.495C166.817 180.992 160.456 178.841 152.912 177.918C137.503 176.048 128.285 168.555 125.51 155.63C122.839 143.178 129.49 129.573 134.736 120.417C136.715 116.959 139.036 113.316 142.034 108.941L142.734 107.892C144.497 105.202 146.93 101.529 151.982 103.258C155.426 104.448 159.176 104.84 162.77 104.396C163.357 104.322 164.019 104.248 164.741 104.411C166.728 104.899 167.553 106.85 167.992 107.899C169.51 111.52 171.884 114.742 173.788 117.136C175.983 119.908 178.468 123.041 181.295 125.369C183.758 127.401 185.99 128.332 187.842 128.11C188.951 127.992 189.673 127.578 190.045 126.854C190.625 125.731 190.379 123.861 189.435 122.206L187.783 119.346C184.695 114.04 181.496 108.557 180.06 102.32C178.885 97.2281 176.757 94.4643 172.203 92.1144C168.64 90.2743 164.659 89.0771 160.813 87.9096C159.764 87.5918 158.715 87.274 157.666 86.9415L154.764 85.9956C152.517 85.2566 150.278 84.5102 147.986 83.9264L147.064 83.6826C144.884 83.1135 142.622 82.515 140.732 83.084C138.768 83.6752 137.198 85.5522 135.688 87.3627C135.286 87.843 134.892 88.316 134.497 88.752C132.399 91.1167 130.338 93.5332 128.285 95.9423C124.684 100.169 120.971 104.537 117.006 108.594C113.531 112.141 109.663 115.644 104.834 119.634L102.781 117.173C107.513 113.264 111.299 109.828 114.7 106.362C118.583 102.394 122.266 98.0632 125.822 93.8805C127.891 91.4493 129.959 89.018 132.087 86.6311C132.459 86.2099 132.831 85.7665 133.203 85.3157C134.936 83.2392 136.901 80.8892 139.802 80.0172C142.555 79.1895 145.39 79.9285 147.882 80.5862L148.775 80.8227C151.141 81.4213 153.462 82.1898 155.776 82.9584L158.633 83.8895C159.66 84.2146 160.694 84.5324 161.735 84.8428C165.723 86.0473 169.845 87.3036 173.669 89.2693C179.048 92.0479 181.801 95.6172 183.178 101.603C184.509 107.374 187.448 112.414 190.551 117.742L192.217 120.632C193.713 123.263 193.973 126.204 192.894 128.31C192.284 129.5 190.967 130.985 188.177 131.295C185.38 131.569 182.367 130.431 179.212 127.829C176.117 125.287 173.52 122.006 171.229 119.117C169.205 116.56 166.661 113.109 164.994 109.133C164.823 108.727 164.354 107.618 163.953 107.522C163.811 107.485 163.484 107.53 163.194 107.567C159.042 108.084 154.809 107.633 150.895 106.288C148.44 105.438 147.443 106.539 145.405 109.643L144.668 110.752C141.722 115.052 139.445 118.622 137.511 122.006C132.533 130.704 126.194 143.585 128.642 154.965C131.09 166.404 139.386 173.055 153.284 174.74C161.319 175.716 168.119 178.029 174.071 181.79C180.64 185.943 186.072 191.626 189.777 198.225C193.043 204.033 193.98 208.401 192.582 211.194C192.001 212.362 190.699 213.847 187.82 214.246C183.765 214.815 180.335 212.258 178.059 210.566L177.345 210.034C173.52 207.189 169.562 204.24 165.284 202.171C153.589 196.511 139.058 197.523 128.278 204.743C127.169 205.489 126.09 206.295 125.026 207.093C122.683 208.844 120.272 210.655 117.467 211.881C112.601 214.002 107.282 214.084 102.148 214.157C101.084 214.172 100.028 214.187 98.9788 214.217C91.4049 214.453 86.487 216.131 83.4887 219.493C81.7923 221.392 80.7359 223.882 79.7166 226.484C72.8569 243.968 68.2738 262.324 66.0865 281.028C65.4689 286.504 65.0374 292.046 64.8142 297.493Z" fill="#A98C64"/>
<path d="M3.20395 282.011L0.0568237 281.346L10.1827 234.362C11.879 226.491 13.6274 218.348 16.5514 210.596C19.4381 202.933 23.3367 195.868 28.2917 187.613C34.4669 177.327 41.1257 167.07 47.5614 157.145C63.2673 132.936 79.5088 107.899 89.91 80.6752C92.9083 72.8198 95.8099 64.7205 98.6148 56.8799C105.065 38.8561 111.732 20.2189 120.347 2.46856C121.314 0.465916 122.668 0.0299164 123.628 0.0151367C123.643 0.0151367 123.658 0.0151367 123.673 0.0151367C126.292 0.0151367 128.092 3.08192 128.583 4.02782C131.321 9.29677 130.748 15.6225 130.242 21.2018L130.138 22.3768C129.424 30.5056 126.961 41.546 124.134 49.2314L121.106 48.1303C123.844 40.6814 126.232 29.9735 126.924 22.1033L127.036 20.9136C127.497 15.7703 128.025 9.93968 125.726 5.49839C124.967 4.03521 124 3.2371 123.68 3.22232C123.688 3.2371 123.502 3.36273 123.256 3.86524C114.715 21.4678 108.079 40.0237 101.658 57.9662C98.8454 65.8216 95.9438 73.943 92.9306 81.828C82.4104 109.37 66.0796 134.547 50.277 158.897C43.8562 168.792 37.2197 179.034 31.0668 189.269C26.2011 197.375 22.3843 204.292 19.5794 211.741C16.7374 219.271 15.0113 227.297 13.3447 235.049L3.20395 282.011Z" fill="#A98C64"/>
<path d="M83.4523 124.312L81.2798 121.947C93.2434 111.106 96.6063 100.879 96.6435 100.783C103.28 83.0028 105.527 78.5984 108.934 71.9254C109.835 70.1519 110.832 68.2083 112.015 65.7993L113.651 62.4517C118.867 51.7438 124.253 40.6738 133.048 32.5081C134.409 31.237 135.823 30.0103 137.221 28.791C138.598 27.5864 139.982 26.3893 141.321 25.1404C144.423 22.2584 147.362 19.0733 150.204 15.9918L160.509 4.81836C161.387 3.85769 162.592 2.54969 164.355 2.12846C165.449 1.86243 166.356 1.84765 167.175 2.05457C173.119 3.59904 171.431 12.9989 170.768 15.844C169.474 21.4159 167.249 26.9509 164.154 32.3159C158.254 42.5213 149.698 51.2709 142.139 58.6681C134.885 65.7697 132.214 77.5787 130.071 87.0672C129.506 89.5428 128.896 92.4692 128.479 94.9743L125.302 94.4496C125.727 91.8854 126.359 88.9073 126.932 86.3652C129.164 76.4702 131.954 64.1513 139.877 56.392C147.288 49.1426 155.673 40.5778 161.364 30.7271C164.303 25.6355 166.416 20.3887 167.636 15.1346C168.365 11.9865 169.035 5.85294 166.364 5.15091C166.17 5.09918 165.798 5.07701 165.121 5.23958C164.377 5.41694 163.671 6.13375 162.889 6.98358L152.652 18.0905C149.706 21.2903 146.715 24.527 143.523 27.4904C142.162 28.7614 140.748 29.9881 139.349 31.2075C137.973 32.412 136.589 33.6091 135.25 34.858C126.895 42.6174 121.642 53.4139 116.56 63.8557L114.916 67.2181C113.726 69.642 112.729 71.5929 111.814 73.3812C108.339 80.1873 106.241 84.296 99.6939 101.825C99.5748 102.187 96.1078 112.836 83.4523 124.312Z" fill="#A98C64"/>
<path d="M71.7115 124.511L68.5346 124.016C70.2458 113.101 70.1193 101.862 70.0003 90.9985L69.9556 86.402C69.9184 83.52 69.8887 80.5345 70.4021 77.5859C70.6401 76.1893 71.0121 74.8074 71.3767 73.4329L71.8529 71.6076C73.326 65.6883 73.7054 59.4217 74.07 53.3547C74.2783 49.8962 74.5015 46.3196 74.9107 42.802C75.0074 41.9891 75.1562 40.755 75.9225 39.7131C77.6784 37.3705 81.1529 37.6956 83.5114 39.3583C86.7924 41.664 88.7789 45.6914 89.575 51.6772C90.6166 59.5326 89.9991 68.4152 89.3964 77.0095C89.0244 82.3007 88.6822 87.1927 88.6896 91.7449H85.4681C85.4607 87.0819 85.8103 82.1381 86.1749 76.9061C86.7701 68.356 87.3802 59.6434 86.3758 52.0984C85.7062 47.0512 84.1587 43.7331 81.6439 41.9743C80.6172 41.2427 79.025 40.9398 78.5042 41.627C78.2662 41.9448 78.1769 42.5434 78.1025 43.1789C77.7007 46.6004 77.485 50.1327 77.2841 53.5468C76.9121 59.7543 76.5177 66.176 74.9851 72.3687L74.4941 74.2531C74.1518 75.539 73.8021 76.8248 73.5789 78.1254C73.1177 80.7931 73.1474 83.4978 73.1772 86.3577L73.2218 90.9615C73.3409 101.965 73.4673 113.338 71.7115 124.511Z" fill="#A98C64"/>
<path d="M125.227 144.472C123.434 149.718 119.699 155.556 114.298 157.574C112.334 158.305 113.189 161.461 115.168 160.722C121.753 158.268 126.194 151.773 128.389 145.344C129.074 143.348 125.904 142.491 125.227 144.472Z" fill="#A98C64"/>
<path d="M61.1315 236.423C64.8887 223.572 79.114 216.951 91.3156 215.214C93.3989 214.919 92.5135 211.771 90.4452 212.066C77.0531 213.973 62.0392 221.621 57.9695 235.558C57.3743 237.576 60.5437 238.433 61.1315 236.423Z" fill="#A98C64"/>
<path d="M96.5906 100.827C93.9197 109.037 87.3873 116.242 81.2047 121.977C79.6571 123.41 81.9859 125.716 83.526 124.282C90.1327 118.156 96.9106 110.441 99.7601 101.692C100.415 99.689 97.2379 98.8318 96.5906 100.827Z" fill="#A98C64"/>
<path d="M114.7 106.34C110.89 110.205 106.835 113.804 102.654 117.262C101.032 118.607 103.361 120.905 104.975 119.568C109.157 116.102 113.204 112.503 117.021 108.645C118.509 107.145 116.188 104.832 114.7 106.34Z" fill="#A98C64"/>
<path d="M64.8523 297.426C65.0904 291.884 65.5293 286.356 66.1543 280.843C66.3924 278.759 63.1039 278.774 62.8658 280.843C62.2408 286.356 61.8019 291.884 61.5638 297.426C61.4745 299.532 64.763 299.525 64.8523 297.426Z" fill="#A98C64"/>
<path d="M3.73944 264.083C2.5044 269.803 1.2768 275.515 0.0417523 281.235C-0.397209 283.282 2.7648 284.161 3.2112 282.1C4.44625 276.38 5.67385 270.668 6.90889 264.948C7.34785 262.908 4.18584 262.029 3.73944 264.083Z" fill="#A98C64"/>
<path d="M325.186 297.493C324.97 292.046 324.538 286.511 323.898 281.035C321.711 262.332 317.128 243.975 310.268 226.491C309.249 223.897 308.193 221.407 306.496 219.5C303.505 216.145 298.58 214.468 291.014 214.224C289.964 214.187 288.901 214.172 287.844 214.165C282.703 214.091 277.391 214.017 272.518 211.889C269.713 210.662 267.302 208.851 264.959 207.1C263.887 206.295 262.816 205.489 261.707 204.75C250.927 197.53 236.396 196.518 224.701 202.178C220.43 204.248 216.479 207.189 212.67 210.019L211.926 210.566C209.642 212.258 206.205 214.822 202.165 214.253C199.285 213.854 197.983 212.376 197.403 211.201C196.004 208.401 196.949 204.033 200.208 198.232C203.913 191.633 209.344 185.95 215.914 181.797C221.866 178.028 228.674 175.73 236.701 174.747C250.599 173.063 258.887 166.404 261.343 154.972C263.79 143.584 257.452 130.711 252.474 122.014C250.54 118.629 248.263 115.06 245.317 110.751L244.58 109.65C242.549 106.539 241.552 105.446 239.09 106.295C235.184 107.633 230.95 108.084 226.851 107.581C226.508 107.537 226.181 107.485 226.017 107.537C225.631 107.626 225.162 108.734 224.983 109.148C223.317 113.131 220.78 116.567 218.756 119.124C216.457 122.021 213.846 125.302 210.773 127.837C207.603 130.445 204.598 131.583 201.8 131.303C199.01 130.992 197.701 129.507 197.083 128.317C196.004 126.211 196.265 123.27 197.76 120.639L199.427 117.75C202.529 112.414 205.468 107.374 206.8 101.61C208.176 95.6319 210.937 92.0552 216.308 89.2766C220.132 87.3109 224.247 86.062 228.235 84.8501C229.276 84.5397 230.318 84.2219 231.352 83.8894L234.209 82.9583C236.53 82.1897 238.844 81.4286 241.21 80.8226L242.103 80.5862C244.595 79.9285 247.415 79.1895 250.183 80.0097C253.092 80.8817 255.048 83.2391 256.789 85.3156C257.161 85.7664 257.533 86.2098 257.905 86.631C260.041 89.0327 262.124 91.4788 264.207 93.9174C267.756 98.0927 271.431 102.408 275.3 106.362C278.678 109.806 282.465 113.242 287.227 117.173L285.166 119.634C280.322 115.629 276.453 112.119 273.001 108.594C269.043 104.551 265.338 100.199 261.752 95.9792C259.691 93.5479 257.623 91.1241 255.502 88.7445C255.115 88.3085 254.721 87.8356 254.312 87.3552C252.802 85.5373 251.232 83.6677 249.26 83.0691C247.363 82.5149 245.116 83.1061 242.936 83.6751L242.014 83.919C239.722 84.5028 237.475 85.2417 235.236 85.9881L232.334 86.934C231.285 87.2666 230.236 87.5843 229.179 87.9021C225.34 89.0697 221.36 90.2742 217.804 92.1069C213.25 94.4569 211.115 97.2207 209.947 102.312C208.511 108.549 205.312 114.033 202.224 119.338L200.573 122.198C199.635 123.854 199.382 125.723 199.963 126.847C200.335 127.571 201.056 127.985 202.165 128.103C204.002 128.324 206.249 127.393 208.719 125.361C211.532 123.041 213.92 120.033 216.226 117.129C218.124 114.735 220.497 111.527 222.015 107.899C222.461 106.842 223.287 104.891 225.259 104.411C226.003 104.241 226.665 104.322 227.193 104.389C230.853 104.84 234.588 104.441 238.033 103.258C243.085 101.514 245.518 105.202 247.281 107.892L247.98 108.934C250.986 113.308 253.3 116.959 255.279 120.417C260.517 129.566 267.176 143.178 264.505 155.63C261.73 168.555 252.511 176.048 237.103 177.918C229.559 178.841 223.198 180.984 217.655 184.495C211.539 188.359 206.48 193.651 203.028 199.792C199.345 206.361 199.888 208.962 200.297 209.783C200.424 210.049 200.818 210.839 202.626 211.091C205.111 211.445 207.551 209.834 210.007 208.009L210.743 207.462C214.679 204.536 218.749 201.506 223.302 199.304C236.017 193.148 251.797 194.249 263.523 202.105C264.683 202.88 265.799 203.716 266.915 204.551C269.207 206.265 271.372 207.891 273.834 208.955C278.105 210.825 282.867 210.891 287.904 210.965C288.982 210.98 290.061 210.995 291.133 211.024C296.489 211.194 304.167 212.036 308.929 217.379C310.975 219.678 312.151 222.449 313.289 225.331C320.245 243.074 324.895 261.696 327.113 280.673C327.76 286.223 328.206 291.847 328.422 297.374L325.186 297.493Z" fill="#A98C64"/>
<path d="M386.796 282.011L376.67 235.026C374.996 227.267 373.27 219.249 370.428 211.719C367.623 204.277 363.806 197.353 358.94 189.246C352.795 179.004 346.151 168.769 339.73 158.874C323.935 134.525 307.597 109.347 297.077 81.8054C294.063 73.9279 291.162 65.7991 288.349 57.9437C281.929 40.0012 275.292 21.4527 266.751 3.8501C266.483 3.30326 266.29 3.1998 266.29 3.1998C266.022 3.22197 265.047 4.01268 264.288 5.48326C261.982 9.92454 262.51 15.7551 262.971 20.9058L263.083 22.0882C263.768 29.9658 266.163 40.6736 268.901 48.1152L265.873 49.2163C263.053 41.5382 260.583 30.4904 259.869 22.3616L259.765 21.1866C259.259 15.6073 258.693 9.28902 261.431 4.01268C261.915 3.06678 263.715 0 266.334 0C266.349 0 266.372 0 266.379 0C267.339 0.0147797 268.693 0.45078 269.66 2.46081C278.276 20.2112 284.942 38.8483 291.392 56.8721C294.197 64.7128 297.099 72.8194 300.097 80.6674C310.491 107.892 326.74 132.928 342.446 157.137C348.881 167.062 355.54 177.319 361.715 187.606C366.67 195.86 370.562 202.925 373.456 210.588C376.38 218.347 378.128 226.484 379.824 234.354L389.943 281.338L386.796 282.011Z" fill="#A98C64"/>
<path d="M306.548 124.312C293.892 112.836 290.425 102.187 290.292 101.736C283.767 84.2886 281.676 80.1799 278.201 73.3739C277.294 71.5929 276.297 69.6272 275.099 67.2033L273.44 63.8188C268.358 53.3844 263.106 42.5952 254.758 34.8359C253.419 33.5944 252.035 32.3972 250.659 31.1927C249.252 29.9734 247.846 28.7467 246.485 27.483C243.293 24.5197 240.309 21.2829 237.423 18.157L227.118 6.9836C226.337 6.14116 225.63 5.42435 224.886 5.2396C224.209 5.07702 223.845 5.09919 223.651 5.15092C221.33 5.75689 221.36 10.7524 222.372 15.1346C223.592 20.3888 225.705 25.6429 228.643 30.7271C234.335 40.5852 242.72 49.1426 250.13 56.392C258.054 64.1587 260.844 76.4776 263.076 86.3726C263.649 88.9073 264.274 91.8854 264.705 94.457L261.528 94.9817C261.112 92.4766 260.494 89.5576 259.936 87.0746C257.793 77.5861 255.123 65.7771 247.868 58.6755C240.309 51.2783 231.753 42.5287 225.853 32.3233C222.758 26.9657 220.534 21.4233 219.239 15.8514C218.585 13.0063 216.903 3.59906 222.84 2.06197C223.636 1.84767 224.566 1.86984 225.653 2.13587C227.416 2.56448 228.621 3.87248 229.499 4.82577L239.737 15.9327C242.646 19.0881 245.584 22.2732 248.687 25.1552C250.026 26.3967 251.41 27.5938 252.786 28.7984C254.193 30.0177 255.599 31.2444 256.96 32.5081C265.747 40.6738 271.141 51.729 276.349 62.4295L278.001 65.8067C279.191 68.2158 280.181 70.1667 281.081 71.9402C284.481 78.6059 286.728 83.0176 293.342 100.709C293.401 100.886 296.764 111.114 308.728 121.955L306.548 124.312Z" fill="#A98C64"/>
<path d="M318.296 124.512C316.54 113.338 316.666 101.965 316.793 90.9692L316.838 86.3653C316.875 83.4981 316.897 80.7934 316.436 78.133C316.213 76.8324 315.863 75.5392 315.521 74.2608L315.03 72.3764C313.49 66.1837 313.103 59.7619 312.731 53.5545C312.522 50.1404 312.314 46.608 311.912 43.1865C311.838 42.551 311.749 41.9524 311.503 41.6347C310.997 40.94 309.39 41.2578 308.363 41.982C305.849 43.7482 304.301 47.0662 303.632 52.1134C302.627 59.6511 303.237 68.3711 303.825 76.8029C304.197 82.1531 304.547 87.0969 304.547 91.7599H301.325C301.325 87.2078 300.983 82.3157 300.618 77.1428C300.008 68.4302 299.391 59.555 300.432 51.6922C301.228 45.7065 303.215 41.679 306.496 39.366C308.847 37.7107 312.336 37.3855 314.085 39.7207C314.859 40.7553 315 41.9894 315.097 42.8096C315.513 46.3272 315.729 49.9039 315.937 53.3623C316.302 59.4294 316.681 65.696 318.154 71.6152L318.631 73.4405C318.995 74.815 319.367 76.1969 319.605 77.5936C320.119 80.5421 320.089 83.5276 320.052 86.4097L320.007 91.0061C319.888 101.877 319.761 113.109 321.473 124.024L318.296 124.512Z" fill="#A98C64"/>
<path d="M261.61 145.336C263.805 151.765 268.254 158.261 274.831 160.714C276.81 161.453 277.666 158.298 275.702 157.566C270.3 155.556 266.565 149.711 264.772 144.464C264.103 142.491 260.926 143.341 261.61 145.336Z" fill="#A98C64"/>
<path d="M332.038 235.551C327.968 221.614 312.947 213.965 299.562 212.059C297.494 211.763 296.601 214.911 298.692 215.207C310.893 216.943 325.119 223.565 328.876 236.416C329.456 238.433 332.626 237.576 332.038 235.551Z" fill="#A98C64"/>
<path d="M290.239 101.691C293.089 110.441 299.867 118.156 306.474 124.282C308.021 125.716 310.342 123.41 308.795 121.977C302.605 116.235 296.08 109.037 293.409 100.827C292.762 98.8316 289.592 99.6888 290.239 101.691Z" fill="#A98C64"/>
<path d="M272.979 108.645C276.788 112.51 280.843 116.109 285.024 119.568C286.639 120.905 288.975 118.607 287.345 117.262C283.164 113.796 279.117 110.197 275.3 106.34C273.819 104.84 271.491 107.145 272.979 108.645Z" fill="#A98C64"/>
<path d="M328.436 297.426C328.198 291.884 327.759 286.356 327.134 280.843C326.896 278.781 323.615 278.759 323.846 280.843C324.47 286.356 324.909 291.884 325.148 297.426C325.244 299.525 328.525 299.532 328.436 297.426Z" fill="#A98C64"/>
<path d="M383.09 264.955C384.325 270.675 385.553 276.387 386.788 282.107C387.227 284.161 390.397 283.289 389.958 281.242C388.723 275.522 387.495 269.81 386.26 264.09C385.821 262.036 382.651 262.901 383.09 264.955Z" fill="#A98C64"/>
</svg>
